[Header]
FileType HTR
DataType HTRS
FileVersion 1
NumSegments 64
NumFrames 4
DataFrameRate 24
EulerRotationOrder ZYX
CalibrationUnits mm
RotationUnits Degrees
GlobalAxisofGravity Y
BoneLengthAxis Y
ScaleFactor 1.0
[SegmentNames&Hierarchy]
Hips	GLOBAL
Spine	Hips
Spine1	Spine
Spine2	Spine1
Neck	Spine2
Head	Neck
LeftEye	Head
RightEye	Head
LeftShoulder	Spine2
LeftArm	LeftShoulder
LeftForeArm	LeftArm
LeftHand	LeftForeArm
LeftHandThumb1	LeftHand
LeftHandThumb2	LeftHandThumb1
LeftHandThumb3	LeftHandThumb2
LeftHandThumb4	LeftHandThumb3
LeftHandIndex1	LeftHand
LeftHandIndex2	LeftHandIndex1
LeftHandIndex3	LeftHandIndex2
LeftHandIndex4	LeftHandIndex3
LeftHandMiddle1	LeftHand
LeftHandMiddle2	LeftHandMiddle1
LeftHandMiddle3	LeftHandMiddle2
LeftHandMiddle4	LeftHandMiddle3
LeftHandRing1	LeftHand
LeftHandRing2	LeftHandRing1
LeftHandRing3	LeftHandRing2
LeftHandRing4	LeftHandRing3
LeftHandPinky1	LeftHand
LeftHandPinky2	LeftHandPinky1
LeftHandPinky3	LeftHandPinky2
LeftHandPinky4	LeftHandPinky3
RightShoulder	Spine2
RightArm	RightShoulder
RightForeArm	RightArm
RightHand	RightForeArm
RightHandPinky1	RightHand
RightHandPinky2	RightHandPinky1
RightHandPinky3	RightHandPinky2
RightHandPinky4	RightHandPinky3
RightHandRing1	RightHand
RightHandRing2	RightHandRing1
RightHandRing3	RightHandRing2
RightHandRing4	RightHandRing3
RightHandMiddle1	RightHand
RightHandMiddle2	RightHandMiddle1
RightHandMiddle3	RightHandMiddle2
RightHandMiddle4	RightHandMiddle3
RightHandIndex1	RightHand
RightHandIndex2	RightHandIndex1
RightHandIndex3	RightHandIndex2
RightHandIndex4	RightHandIndex3
RightHandThumb1	RightHand
RightHandThumb2	RightHandThumb1
RightHandThumb3	RightHandThumb2
RightHandThumb4	RightHandThumb3
LeftUpLeg	Hips
LeftLeg	LeftUpLeg
LeftFoot	LeftLeg
LeftToeBase	LeftFoot
RightUpLeg	Hips
RightLeg	RightUpLeg
RightFoot	RightLeg
RightToeBase	RightFoot
[BasePosition]
Hips	0	0	0	0	0	0	1
Spine	0	0	0	0	0	0	1
Spine1	0	0	0	0	0	0	1
Spine2	0	0	0	0	0	0	1
Neck	0	0	0	0	0	0	1
Head	0	0	0	0	0	0	1
LeftEye	0	0	0	0	0	0	1
RightEye	0	0	0	0	0	0	1
LeftShoulder	0	0	0	0	0	0	1
LeftArm	0	0	0	0	0	0	1
LeftForeArm	0	0	0	0	0	0	1
LeftHand	0	0	0	0	0	0	1
LeftHandThumb1	0	0	0	0	0	0	1
LeftHandThumb2	0	0	0	0	0	0	1
LeftHandThumb3	0	0	0	0	0	0	1
LeftHandThumb4	0	0	0	0	0	0	1
LeftHandIndex1	0	0	0	0	0	0	1
LeftHandIndex2	0	0	0	0	0	0	1
LeftHandIndex3	0	0	0	0	0	0	1
LeftHandIndex4	0	0	0	0	0	0	1
LeftHandMiddle1	0	0	0	0	0	0	1
LeftHandMiddle2	0	0	0	0	0	0	1
LeftHandMiddle3	0	0	0	0	0	0	1
LeftHandMiddle4	0	0	0	0	0	0	1
LeftHandRing1	0	0	0	0	0	0	1
LeftHandRing2	0	0	0	0	0	0	1
LeftHandRing3	0	0	0	0	0	0	1
LeftHandRing4	0	0	0	0	0	0	1
LeftHandPinky1	0	0	0	0	0	0	1
LeftHandPinky2	0	0	0	0	0	0	1
LeftHandPinky3	0	0	0	0	0	0	1
LeftHandPinky4	0	0	0	0	0	0	1
RightShoulder	0	0	0	0	0	0	1
RightArm	0	0	0	0	0	0	1
RightForeArm	0	0	0	0	0	0	1
RightHand	0	0	0	0	0	0	1
RightHandPinky1	0	0	0	0	0	0	1
RightHandPinky2	0	0	0	0	0	0	1
RightHandPinky3	0	0	0	0	0	0	1
RightHandPinky4	0	0	0	0	0	0	1
RightHandRing1	0	0	0	0	0	0	1
RightHandRing2	0	0	0	0	0	0	1
RightHandRing3	0	0	0	0	0	0	1
RightHandRing4	0	0	0	0	0	0	1
RightHandMiddle1	0	0	0	0	0	0	1
RightHandMiddle2	0	0	0	0	0	0	1
RightHandMiddle3	0	0	0	0	0	0	1
RightHandMiddle4	0	0	0	0	0	0	1
RightHandIndex1	0	0	0	0	0	0	1
RightHandIndex2	0	0	0	0	0	0	1
RightHandIndex3	0	0	0	0	0	0	1
RightHandIndex4	0	0	0	0	0	0	1
RightHandThumb1	0	0	0	0	0	0	1
RightHandThumb2	0	0	0	0	0	0	1
RightHandThumb3	0	0	0	0	0	0	1
RightHandThumb4	0	0	0	0	0	0	1
LeftUpLeg	0	0	0	0	0	0	1
LeftLeg	0	0	0	0	0	0	1
LeftFoot	0	0	0	0	0	0	1
LeftToeBase	0	0	0	0	0	0	1
RightUpLeg	0	0	0	0	0	0	1
RightLeg	0	0	0	0	0	0	1
RightFoot	0	0	0	0	0	0	1
RightToeBase	0	0	0	0	0	0	1
[Hips]
189	2.190925598	1034.158203	12.98701382	-3.616174221	-5.515633583	-3.298001289	1.0
190	2.182377338	1034.142578	13.03128147	-3.602597952	-5.504550934	-3.308099985	1.0
191	2.171212435	1034.126709	13.07719803	-3.588580847	-5.493375778	-3.318276405	1.0
192	2.158144712	1034.11084	13.12431526	-3.574243307	-5.482133389	-3.328509808	1.0
[Spine]
189	0	101.8159943	1.315000057	3.439232349	1.411339402	2.856534004	1.0
190	0	101.8159943	1.315000057	3.431988239	1.408395052	2.851862907	1.0
191	0	101.8159943	1.315000057	3.424862385	1.405484676	2.847252846	1.0
192	0	101.8159943	1.315000057	3.417822123	1.402598977	2.842687368	1.0
[Spine1]
189	0	100.8349991	-10.00800037	1.183594704	0.3208675981	1.579911828	1.0
190	0	100.8349991	-10.00800037	1.181283474	0.3195892572	1.577884436	1.0
191	0	100.8349991	-10.00800037	1.179006815	0.3183251023	1.575870872	1.0
192	0	100.8349991	-10.00800037	1.176755309	0.317071259	1.573867321	1.0
[Spine2]
189	0	91	-13.73399925	1.158320189	0.3437035978	1.583175898	1.0
190	0	91	-13.73399925	1.156011581	0.3424136639	1.581161022	1.0
191	0	91	-13.73399925	1.153737307	0.341137886	1.579159737	1.0
192	0	91	-13.73399925	1.151488543	0.3398725092	1.577168226	1.0
[Neck]
189	0	166.7169952	-25.16200066	5.615580559	-0.1467195749	0.4794896245	1.0
190	0	166.7169952	-25.16200066	5.616429806	-0.1443941444	0.4760986269	1.0
191	0	166.7169952	-25.16200066	5.617319107	-0.142086044	0.4727197886	1.0
192	0	166.7169952	-25.16200066	5.618237019	-0.1397905648	0.4693497717	1.0
[Head]
189	0	96.17900085	16.84999847	-7.634318352	1.314900517	-0.2466405034	1.0
190	0	96.17900085	16.84999847	-7.627238274	1.318755269	-0.2481337041	1.0
191	0	96.17900085	16.84999847	-7.620376587	1.322553277	-0.2495892048	1.0
192	0	96.17900085	16.84999847	-7.61367321	1.326310158	-0.2510173023	1.0
[LeftEye]
189	30.6760006	64.09500122	92.83599854	0	0	0	1.0
190	30.6760006	64.09500122	92.83599854	0	0	0	1.0
191	30.6760006	64.09500122	92.83599854	0	0	0	1.0
192	30.6760006	64.09500122	92.83599854	0	0	0	1.0
[RightEye]
189	-30.6760006	64.09500122	92.83499908	0	0	0	1.0
190	-30.6760006	64.09500122	92.83499908	0	0	0	1.0
191	-30.6760006	64.09500122	92.83499908	0	0	0	1.0
192	-30.6760006	64.09500122	92.83499908	0	0	0	1.0
[LeftShoulder]
189	45.70400238	109.4599991	-26.28000069	4.881155491	-16.78154182	-13.08335114	1.0
190	45.70400238	109.4599991	-26.28000069	4.883300304	-16.78219223	-13.09500504	1.0
191	45.70400238	109.4599991	-26.28000069	4.885456085	-16.7829361	-13.10667896	1.0
192	45.70400238	109.4599991	-26.28000069	4.887619019	-16.78375053	-13.1183691	1.0
[LeftArm]
189	105.923996	-5.24600029	-22.32099915	20.11177444	-3.145608664	-71.18395233	1.0
190	105.923996	-5.24600029	-22.32099915	20.11330032	-3.139903784	-71.16651154	1.0
191	105.923996	-5.24600029	-22.32099915	20.11484528	-3.13425827	-71.14907074	1.0
192	105.923996	-5.24600029	-22.32099915	20.11639977	-3.128654957	-71.1316452	1.0
[LeftForeArm]
189	278.414978	-0.0009999999311	0	-5.611182587e-06	-1.487454176	-0.00019306787	1.0
190	278.414978	-0.0009999999311	0	-5.967185643e-06	-1.484706879	-0.0001936257031	1.0
191	278.414978	-0.0009999999311	0	-6.282736649e-06	-1.481970787	-0.0001942762319	1.0
192	278.414978	-0.0009999999311	0	-6.56886732e-06	-1.479242682	-0.0001949941798	1.0
[LeftHand]
189	283.2879944	0	0	-32.94973373	-4.5682621	-4.499610901	1.0
190	283.2879944	0	0	-32.94992447	-4.563732147	-4.494201183	1.0
191	283.2879944	0	0	-32.95024109	-4.559267998	-4.488656044	1.0
192	283.2879944	0	0	-32.95064926	-4.554852962	-4.483012199	1.0
[LeftHandThumb1]
189	24.6609993	-15.75	26.8239994	-0.4889889657	2.201390743	4.818541527	1.0
190	24.6609993	-15.75	26.8239994	-0.4889889657	2.201390743	4.818541527	1.0
191	24.6609993	-15.75	26.8239994	-0.4889889657	2.201390743	4.818541527	1.0
192	24.6609993	-15.75	26.8239994	-0.4889889657	2.201390743	4.818541527	1.0
[LeftHandThumb2]
189	32.29800034	-18.64699936	18.64699936	19.88581276	19.96446037	23.26738167	1.0
190	32.29800034	-18.64699936	18.64699936	19.88581276	19.96446037	23.26738167	1.0
191	32.29800034	-18.64699936	18.64699936	19.88581276	19.96446037	23.26738167	1.0
192	32.29800034	-18.64699936	18.64699936	19.88581276	19.96446037	23.26738167	1.0
[LeftHandThumb3]
189	26.52600098	-15.31499958	15.31499958	-13.14535904	5.551738262	7.967928886	1.0
190	26.52600098	-15.31499958	15.31499958	-13.14535904	5.551738262	7.967928886	1.0
191	26.52600098	-15.31499958	15.31499958	-13.14535904	5.551738262	7.967928886	1.0
192	26.52600098	-15.31499958	15.31499958	-13.14535904	5.551738262	7.967928886	1.0
[LeftHandThumb4]
189	19.54599953	-11.28499985	11.28499985	0	0	0	1.0
190	19.54599953	-11.28499985	11.28499985	0	0	0	1.0
191	19.54599953	-11.28499985	11.28499985	0	0	0	1.0
192	19.54599953	-11.28499985	11.28499985	0	0	0	1.0
[LeftHandIndex1]
189	91.09299469	-5.170999527	22.60099792	0.1480516791	-0.9618676901	-7.594518185	1.0
190	91.09299469	-5.170999527	22.60099792	0.1480516791	-0.9618676901	-7.594518185	1.0
191	91.09299469	-5.170999527	22.60099792	0.1480516791	-0.9618676901	-7.594518185	1.0
192	91.09299469	-5.170999527	22.60099792	0.1480516791	-0.9618676901	-7.594518185	1.0
[LeftHandIndex2]
189	36.76399994	0	0	-0.2667043209	1.745171905	-17.37646866	1.0
190	36.76399994	0	0	-0.2667043209	1.745171905	-17.37646866	1.0
191	36.76399994	0	0	-0.2667043209	1.745171905	-17.37646866	1.0
192	36.76399994	0	0	-0.2667043209	1.745171905	-17.37646866	1.0
[LeftHandIndex3]
189	28.83100128	0	0	-0.05742863193	0.817338407	-8.038370132	1.0
190	28.83100128	0	0	-0.05742863193	0.817338407	-8.038370132	1.0
191	28.83100128	0	0	-0.05742863193	0.817338407	-8.038370132	1.0
192	28.83100128	0	0	-0.05742863193	0.817338407	-8.038370132	1.0
[LeftHandIndex4]
189	23.92700005	0	0	0	0	0	1.0
190	23.92700005	0	0	0	0	0	1.0
191	23.92700005	0	0	0	0	0	1.0
192	23.92700005	0	0	0	0	0	1.0
[LeftHandMiddle1]
189	95.33399963	0	0	-0.7942916155	2.538622379	-15.71737862	1.0
190	95.33399963	0	0	-0.7942916155	2.538622379	-15.71737862	1.0
191	95.33399963	0	0	-0.7942916155	2.538622379	-15.71737862	1.0
192	95.33399963	0	0	-0.7942916155	2.538622379	-15.71737862	1.0
[LeftHandMiddle2]
189	36.98199844	0	0	-0.267610997	1.748071074	-17.40625954	1.0
190	36.98199844	0	0	-0.267610997	1.748071074	-17.40625954	1.0
191	36.98199844	0	0	-0.267610997	1.748071074	-17.40625954	1.0
192	36.98199844	0	0	-0.267610997	1.748071074	-17.40625954	1.0
[LeftHandMiddle3]
189	29.50900078	0	0	-0.2992140949	1.84580946	-18.41413307	1.0
190	29.50900078	0	0	-0.2992140949	1.84580946	-18.41413307	1.0
191	29.50900078	0	0	-0.2992140949	1.84580946	-18.41413307	1.0
192	29.50900078	0	0	-0.2992140949	1.84580946	-18.41413307	1.0
[LeftHandMiddle4]
189	28.3390007	0	0	0	0	0	1.0
190	28.3390007	0	0	0	0	0	1.0
191	28.3390007	0	0	0	0	0	1.0
192	28.3390007	0	0	0	0	0	1.0
[LeftHandRing1]
189	91.04499817	-0.4390000105	-18.65100098	-1.184956431	3.436642885	-21.16632462	1.0
190	91.04499817	-0.4390000105	-18.65100098	-1.184956431	3.436642885	-21.16632462	1.0
191	91.04499817	-0.4390000105	-18.65100098	-1.184956431	3.436642885	-21.16632462	1.0
192	91.04499817	-0.4390000105	-18.65100098	-1.184956431	3.436642885	-21.16632462	1.0
[LeftHandRing2]
189	31.54000092	0	0	-0.3849357069	2.085560799	-20.91281319	1.0
190	31.54000092	0	0	-0.3849357069	2.085560799	-20.91281319	1.0
191	31.54000092	0	0	-0.3849357069	2.085560799	-20.91281319	1.0
192	31.54000092	0	0	-0.3849357069	2.085560799	-20.91281319	1.0
[LeftHandRing3]
189	29.37700081	0	0	-0.2818065584	1.792707562	-17.86576271	1.0
190	29.37700081	0	0	-0.2818065584	1.792707562	-17.86576271	1.0
191	29.37700081	0	0	-0.2818065584	1.792707562	-17.86576271	1.0
192	29.37700081	0	0	-0.2818065584	1.792707562	-17.86576271	1.0
[LeftHandRing4]
189	26.47500038	0	0	0	0	0	1.0
190	26.47500038	0	0	0	0	0	1.0
191	26.47500038	0	0	0	0	0	1.0
192	26.47500038	0	0	0	0	0	1.0
[LeftHandPinky1]
189	80.77799988	-4.887000084	-38.06099701	-1.708467126	5.355370045	-27.1653862	1.0
190	80.77799988	-4.887000084	-38.06099701	-1.708467126	5.355370045	-27.1653862	1.0
191	80.77799988	-4.887000084	-38.06099701	-1.708467126	5.355370045	-27.1653862	1.0
192	80.77799988	-4.887000084	-38.06099701	-1.708467126	5.355370045	-27.1653862	1.0
[LeftHandPinky2]
189	36	0	0	-0.2676221728	1.748113751	-17.40663528	1.0
190	36	0	0	-0.2676221728	1.748113751	-17.40663528	1.0
191	36	0	0	-0.2676221728	1.748113751	-17.40663528	1.0
192	36	0	0	-0.2676221728	1.748113751	-17.40663528	1.0
[LeftHandPinky3]
189	21.14200211	0	0	-0.2408525199	1.660349369	-16.50663185	1.0
190	21.14200211	0	0	-0.2408525199	1.660349369	-16.50663185	1.0
191	21.14200211	0	0	-0.2408525199	1.660349369	-16.50663185	1.0
192	21.14200211	0	0	-0.2408525199	1.660349369	-16.50663185	1.0
[LeftHandPinky4]
189	19.75699997	0	0	0	0	0	1.0
190	19.75699997	0	0	0	0	0	1.0
191	19.75699997	0	0	0	0	0	1.0
192	19.75699997	0	0	0	0	0	1.0
[RightShoulder]
189	-45.70000076	109.4620056	-26.28000069	5.183804512	14.60536003	15.48100471	1.0
190	-45.70000076	109.4620056	-26.28000069	5.183755398	14.59587479	15.48547077	1.0
191	-45.70000076	109.4620056	-26.28000069	5.183721542	14.58649254	15.48997784	1.0
192	-45.70000076	109.4620056	-26.28000069	5.183699131	14.57718754	15.49451447	1.0
[RightArm]
189	-105.9280014	-5.248000145	-22.32099915	30.2493782	2.292572737	62.64842987	1.0
190	-105.9280014	-5.248000145	-22.32099915	30.2485733	2.285840988	62.64619064	1.0
191	-105.9280014	-5.248000145	-22.32099915	30.24768066	2.279041767	62.64395142	1.0
192	-105.9280014	-5.248000145	-22.32099915	30.2467289	2.27219367	62.641716	1.0
[RightForeArm]
189	-278.414978	0	0	-3.795870271e-06	6.646626949	-5.556064025e-06	1.0
190	-278.414978	0	0	-2.564358283e-06	6.651166439	-4.776983587e-06	1.0
191	-278.414978	0	0	-1.248452236e-06	6.655703068	-4.060157153e-06	1.0
192	-278.414978	0	0	1.28832113e-07	6.660238266	-3.388605364e-06	1.0
[RightHand]
189	-283.2879944	0	0.0009999999311	-20.07361984	1.758098364	6.343407631	1.0
190	-283.2879944	0	0.0009999999311	-20.0738678	1.767509699	6.363143921	1.0
191	-283.2879944	0	0.0009999999311	-20.07413483	1.776927471	6.382800102	1.0
192	-283.2879944	0	0.0009999999311	-20.07441902	1.786349654	6.402398109	1.0
[RightHandPinky1]
189	-80.76699829	-4.885000229	-38.06000137	-1.507175922	-4.696118355	26.50587463	1.0
190	-80.76699829	-4.885000229	-38.06000137	-1.507175922	-4.696118355	26.50587463	1.0
191	-80.76699829	-4.885000229	-38.06000137	-1.507175922	-4.696118355	26.50587463	1.0
192	-80.76699829	-4.885000229	-38.06000137	-1.507175922	-4.696118355	26.50587463	1.0
[RightHandPinky2]
189	-36	0	0.0009999999311	-0.2127676606	-1.388874292	17.43785858	1.0
190	-36	0	0.0009999999311	-0.2127676606	-1.388874292	17.43785858	1.0
191	-36	0	0.0009999999311	-0.2127676606	-1.388874292	17.43785858	1.0
192	-36	0	0.0009999999311	-0.2127676606	-1.388874292	17.43785858	1.0
[RightHandPinky3]
189	-21.14200211	0	0	-0.1919144988	-1.32059598	16.53641129	1.0
190	-21.14200211	0	0	-0.1919144988	-1.32059598	16.53641129	1.0
191	-21.14200211	0	0	-0.1919144988	-1.32059598	16.53641129	1.0
192	-21.14200211	0	0	-0.1919144988	-1.32059598	16.53641129	1.0
[RightHandPinky4]
189	-19.75699997	0	0	0	0	0	1.0
190	-19.75699997	0	0	0	0	0	1.0
191	-19.75699997	0	0	0	0	0	1.0
192	-19.75699997	0	0	0	0	0	1.0
[RightHandRing1]
189	-91.03599548	-0.4390000105	-18.65100098	-1.045235753	-2.883111477	20.47788429	1.0
190	-91.03599548	-0.4390000105	-18.65100098	-1.045235753	-2.883111477	20.47788429	1.0
191	-91.03599548	-0.4390000105	-18.65100098	-1.045235753	-2.883111477	20.47788429	1.0
192	-91.03599548	-0.4390000105	-18.65100098	-1.045235753	-2.883111477	20.47788429	1.0
[RightHandRing2]
189	-31.54000092	0	0	-0.3066971898	-1.658752441	20.94926834	1.0
190	-31.54000092	0	0	-0.3066971898	-1.658752441	20.94926834	1.0
191	-31.54000092	0	0	-0.3066971898	-1.658752441	20.94926834	1.0
192	-31.54000092	0	0	-0.3066971898	-1.658752441	20.94926834	1.0
[RightHandRing3]
189	-29.37700081	0	0	-0.2245407403	-1.425854325	17.89771652	1.0
190	-29.37700081	0	0	-0.2245407403	-1.425854325	17.89771652	1.0
191	-29.37700081	0	0	-0.2245407403	-1.425854325	17.89771652	1.0
192	-29.37700081	0	0	-0.2245407403	-1.425854325	17.89771652	1.0
[RightHandRing4]
189	-26.47500038	0	0	0	0	0	1.0
190	-26.47500038	0	0	0	0	0	1.0
191	-26.47500038	0	0	0	0	0	1.0
192	-26.47500038	0	0	0	0	0	1.0
[RightHandMiddle1]
189	-95.32500458	0	0	-0.7017197609	-2.087752104	15.0152874	1.0
190	-95.32500458	0	0	-0.7017197609	-2.087752104	15.0152874	1.0
191	-95.32500458	0	0	-0.7017197609	-2.087752104	15.0152874	1.0
192	-95.32500458	0	0	-0.7017197609	-2.087752104	15.0152874	1.0
[RightHandMiddle2]
189	-36.98199844	0	0	-0.213228479	-1.390354872	17.43750381	1.0
190	-36.98199844	0	0	-0.213228479	-1.390354872	17.43750381	1.0
191	-36.98199844	0	0	-0.213228479	-1.390354872	17.43750381	1.0
192	-36.98199844	0	0	-0.213228479	-1.390354872	17.43750381	1.0
[RightHandMiddle3]
189	-29.50900078	0	0	-0.2384106964	-1.470119596	18.44692802	1.0
190	-29.50900078	0	0	-0.2384106964	-1.470119596	18.44692802	1.0
191	-29.50900078	0	0	-0.2384106964	-1.470119596	18.44692802	1.0
192	-29.50900078	0	0	-0.2384106964	-1.470119596	18.44692802	1.0
[RightHandMiddle4]
189	-28.3390007	0	0.0009999999311	0	0	0	1.0
190	-28.3390007	0	0.0009999999311	0	0	0	1.0
191	-28.3390007	0	0.0009999999311	0	0	0	1.0
192	-28.3390007	0	0.0009999999311	0	0	0	1.0
[RightHandIndex1]
189	-91.08300018	-5.167999744	22.60099792	0.1884763837	1.25192976	6.825599194	1.0
190	-91.08300018	-5.167999744	22.60099792	0.1884763837	1.25192976	6.825599194	1.0
191	-91.08300018	-5.167999744	22.60099792	0.1884763837	1.25192976	6.825599194	1.0
192	-91.08300018	-5.167999744	22.60099792	0.1884763837	1.25192976	6.825599194	1.0
[RightHandIndex2]
189	-36.76399994	0	0	-0.2125098109	-1.388050556	17.40767097	1.0
190	-36.76399994	0	0	-0.2125098109	-1.388050556	17.40767097	1.0
191	-36.76399994	0	0	-0.2125098109	-1.388050556	17.40767097	1.0
192	-36.76399994	0	0	-0.2125098109	-1.388050556	17.40767097	1.0
[RightHandIndex3]
189	-28.83100128	0	0	-0.04576345533	-0.650116384	8.053516388	1.0
190	-28.83100128	0	0	-0.04576345533	-0.650116384	8.053516388	1.0
191	-28.83100128	0	0	-0.04576345533	-0.650116384	8.053516388	1.0
192	-28.83100128	0	0	-0.04576345533	-0.650116384	8.053516388	1.0
[RightHandIndex4]
189	-23.92700005	0	0	0	0	0	1.0
190	-23.92700005	0	0	0	0	0	1.0
191	-23.92700005	0	0	0	0	0	1.0
192	-23.92700005	0	0	0	0	0	1.0
[RightHandThumb1]
189	-24.64799881	-15.72700024	26.82600021	-1.658462524	-0.2891407609	-4.221328735	1.0
190	-24.64799881	-15.72700024	26.82600021	-1.658462524	-0.2891407609	-4.221328735	1.0
191	-24.64799881	-15.72700024	26.82600021	-1.658462524	-0.2891407609	-4.221328735	1.0
192	-24.64799881	-15.72700024	26.82600021	-1.658462524	-0.2891407609	-4.221328735	1.0
[RightHandThumb2]
189	-32.29800034	-18.64699936	18.64699936	22.25259209	-23.88967514	-24.282444	1.0
190	-32.29800034	-18.64699936	18.64699936	22.25259209	-23.88967514	-24.282444	1.0
191	-32.29800034	-18.64699936	18.64699936	22.25259209	-23.88967514	-24.282444	1.0
192	-32.29800034	-18.64699936	18.64699936	22.25259209	-23.88967514	-24.282444	1.0
[RightHandThumb3]
189	-26.52600098	-15.31399918	15.31399918	-14.47830296	-6.743862152	-11.36570263	1.0
190	-26.52600098	-15.31399918	15.31399918	-14.47830296	-6.743862152	-11.36570263	1.0
191	-26.52600098	-15.31399918	15.31399918	-14.47830296	-6.743862152	-11.36570263	1.0
192	-26.52600098	-15.31399918	15.31399918	-14.47830296	-6.743862152	-11.36570263	1.0
[RightHandThumb4]
189	-19.54599953	-11.28499985	11.28499985	0	0	0	1.0
190	-19.54599953	-11.28499985	11.28499985	0	0	0	1.0
191	-19.54599953	-11.28499985	11.28499985	0	0	0	1.0
192	-19.54599953	-11.28499985	11.28499985	0	0	0	1.0
[LeftUpLeg]
189	82.07800293	-67.51699829	-15.99599934	-8.053518295	16.14113235	7.609988689	1.0
190	82.07800293	-67.51699829	-15.99599934	-8.078931808	16.14520836	7.617373466	1.0
191	82.07800293	-67.51699829	-15.99599934	-8.104759216	16.14941978	7.624851227	1.0
192	82.07800293	-67.51699829	-15.99599934	-8.130889893	16.15373421	7.632394791	1.0
[LeftLeg]
189	0	-443.7049866	2.845999956	11.99889755	1.258812904	4.540693283	1.0
190	0	-443.7049866	2.845999956	12.02142429	1.245673418	4.536324501	1.0
191	0	-443.7049866	2.845999956	12.04396343	1.232456684	4.531974316	1.0
192	0	-443.7049866	2.845999956	12.06651211	1.21918416	4.527637005	1.0
[LeftFoot]
189	0	-444.2789917	-29.8219986	1.378605723	0.6730005741	-7.081799984	1.0
190	0	-444.2789917	-29.8219986	1.365244746	0.6724591255	-7.080941677	1.0
191	0	-444.2789917	-29.8219986	1.351959944	0.671923399	-7.080159187	1.0
192	0	-444.2789917	-29.8219986	1.338730574	0.6713918447	-7.079432011	1.0
[LeftToeBase]
189	0	-87.28699493	107.1060028	-4.921624184	-4.73218762e-08	-1.000179623e-06	1.0
190	0	-87.28699493	107.1060028	-4.919659138	-3.879991368e-07	-1.034252932e-06	1.0
191	0	-87.28699493	107.1060028	-4.917702675	-7.82796576e-07	-1.057476993e-06	1.0
192	0	-87.28699493	107.1060028	-4.915752888	-1.216954274e-06	-1.072810505e-06	1.0
[RightUpLeg]
189	-82.07800293	-67.51699829	-15.99599934	0.06404591352	-10.4755764	3.257374287	1.0
190	-82.07800293	-67.51699829	-15.99599934	0.05574519932	-10.47160053	3.269919395	1.0
191	-82.07800293	-67.51699829	-15.99599934	0.04719942063	-10.46769714	3.282685757	1.0
192	-82.07800293	-67.51699829	-15.99599934	0.03847542033	-10.4638443	3.295613289	1.0
[RightLeg]
189	0	-443.7049866	2.861999989	8.092348099	-9.209354401	-4.588779449	1.0
190	0	-443.7049866	2.861999989	8.088617325	-9.211316109	-4.585656166	1.0
191	0	-443.7049866	2.861999989	8.084705353	-9.213334084	-4.582336426	1.0
192	0	-443.7049866	2.861999989	8.08066082	-9.215393066	-4.578874588	1.0
[RightFoot]
189	0	-444.2770081	-29.83799934	-3.701268435	-1.330364704	3.330730677	1.0
190	0	-444.2770081	-29.83799934	-3.703005552	-1.34470129	3.329581976	1.0
191	0	-444.2770081	-29.83799934	-3.704812527	-1.359122634	3.328211784	1.0
192	0	-444.2770081	-29.83799934	-3.706670523	-1.373605609	3.32668066	1.0
[RightToeBase]
189	0	-87.28699493	107.1060028	-7.172928333	1.344799239e-05	-1.731123689e-06	1.0
190	0	-87.28699493	107.1060028	-7.181465149	1.324991899e-05	-1.798939138e-06	1.0
191	0	-87.28699493	107.1060028	-7.189953804	1.298534971e-05	-1.865071908e-06	1.0
192	0	-87.28699493	107.1060028	-7.198407173	1.267241987e-05	-1.929980499e-06	1.0
[EndOfFile]
